<svg xmlns="http://www.w3.org/2000/svg" xmlns:xlink="http://www.w3.org/1999/xlink" width="500" zoomAndPan="magnify" viewBox="0 0 375 374.999991" height="500" preserveAspectRatio="xMidYMid meet" version="1.0"><defs><g/><clipPath id="218a1e6ada"><path d="M 178.621094 99.273438 L 273.09375 99.273438 L 273.09375 225.695312 L 178.621094 225.695312 Z M 178.621094 99.273438 " clip-rule="nonzero"/></clipPath></defs><rect x="-37.5" width="450" fill="#ffffff" y="-37.499999" height="449.999989" fill-opacity="1"/><rect x="-37.5" width="450" fill="#f8f7f2" y="-37.499999" height="449.999989" fill-opacity="1"/><g clip-path="url(#218a1e6ada)"><path fill="#1c2120" d="M 178.621094 99.273438 L 273.09375 99.273438 L 273.09375 225.695312 L 178.621094 225.695312 Z M 178.621094 99.273438 " fill-opacity="1" fill-rule="nonzero"/></g><g fill="#1c2120" fill-opacity="1"><g transform="translate(101.789748, 220.595671)"><g><path d="M 9.453125 -11.640625 C 10.179688 -10.703125 10.648438 -9.726562 10.859375 -8.71875 C 11.078125 -7.71875 11.160156 -6.628906 11.109375 -5.453125 C 11.054688 -4.285156 10.675781 -3.242188 9.96875 -2.328125 C 9.269531 -1.410156 8.097656 -0.859375 6.453125 -0.671875 C 4.816406 -0.546875 3.351562 -0.796875 2.0625 -1.421875 C 0.769531 -2.046875 -0.0351562 -2.957031 -0.359375 -4.15625 C -0.691406 -5.351562 -0.296875 -6.75 0.828125 -8.34375 C 1.578125 -9.238281 2.472656 -10.015625 3.515625 -10.671875 C 3.878906 -10.910156 4.253906 -11.171875 4.640625 -11.453125 C 3.378906 -12.816406 2.179688 -14.210938 1.046875 -15.640625 C -0.078125 -17.066406 -0.800781 -18.34375 -1.125 -19.46875 C -1.457031 -20.769531 -1.234375 -21.992188 -0.453125 -23.140625 C 0.316406 -24.296875 1.660156 -24.972656 3.578125 -25.171875 C 4.515625 -25.253906 5.394531 -25.203125 6.21875 -25.015625 C 7.039062 -24.835938 7.800781 -24.441406 8.5 -23.828125 C 8.65625 -23.671875 8.765625 -23.5 8.828125 -23.3125 C 8.890625 -23.132812 8.859375 -22.910156 8.734375 -22.640625 C 8.492188 -22.210938 8.140625 -22 7.671875 -22 C 7.328125 -22 7 -22.039062 6.6875 -22.125 C 6.34375 -22.269531 6.03125 -22.410156 5.75 -22.546875 C 5.5625 -22.648438 5.382812 -22.742188 5.21875 -22.828125 C 4.59375 -23.066406 4.113281 -23.035156 3.78125 -22.734375 C 3.457031 -22.429688 3.296875 -21.972656 3.296875 -21.359375 C 3.335938 -20.273438 3.785156 -19.113281 4.640625 -17.875 C 5.492188 -16.632812 6.332031 -15.492188 7.15625 -14.453125 C 7.5 -14.085938 7.789062 -13.734375 8.03125 -13.390625 C 8.257812 -13.160156 8.734375 -12.578125 9.453125 -11.640625 Z M 5.109375 -3.0625 C 5.734375 -3.113281 6.140625 -3.457031 6.328125 -4.09375 C 6.523438 -4.726562 6.59375 -5.429688 6.53125 -6.203125 C 6.476562 -6.972656 6.429688 -7.550781 6.390625 -7.9375 C 6.304688 -8.164062 6.15625 -8.3125 5.9375 -8.375 C 5.726562 -8.4375 5.53125 -8.425781 5.34375 -8.34375 C 4.632812 -7.789062 4.113281 -7.085938 3.78125 -6.234375 C 3.457031 -5.378906 3.488281 -4.632812 3.875 -4 C 4 -3.757812 4.164062 -3.554688 4.375 -3.390625 C 4.59375 -3.222656 4.835938 -3.113281 5.109375 -3.0625 Z M 5.109375 -3.0625 "/></g></g></g><g fill="#1c2120" fill-opacity="1"><g transform="translate(115.793287, 220.595671)"><g><path d="M 28.453125 -15.3125 C 28.878906 -15.550781 29.304688 -15.726562 29.734375 -15.84375 C 30.160156 -15.957031 30.429688 -15.945312 30.546875 -15.8125 C 30.671875 -15.675781 30.5 -15.316406 30.03125 -14.734375 C 28.507812 -13.054688 26.726562 -11.523438 24.6875 -10.140625 C 22.65625 -8.753906 20.585938 -7.570312 18.484375 -6.59375 C 16.796875 -5.84375 15.015625 -5.242188 13.140625 -4.796875 C 11.265625 -4.347656 9.410156 -4.25 7.578125 -4.5 C 5.742188 -4.757812 4.082031 -5.570312 2.59375 -6.9375 C 0.800781 -8.726562 -0.171875 -11.003906 -0.328125 -13.765625 C -0.492188 -16.523438 0.144531 -18.84375 1.59375 -20.71875 C 3.507812 -22.875 5.929688 -24.257812 8.859375 -24.875 C 11.796875 -25.488281 14.4375 -25.019531 16.78125 -23.46875 C 17.914062 -22.675781 18.375 -21.753906 18.15625 -20.703125 C 17.945312 -19.648438 17.382812 -18.664062 16.46875 -17.75 C 15.550781 -16.832031 14.523438 -16.140625 13.390625 -15.671875 C 11.710938 -15.003906 10.207031 -14.867188 8.875 -15.265625 C 7.539062 -15.660156 6.5 -16.1875 5.75 -16.84375 C 5.21875 -16.65625 4.890625 -15.910156 4.765625 -14.609375 C 4.421875 -12.160156 5.1875 -10.171875 7.0625 -8.640625 C 8.625 -7.460938 10.585938 -7.140625 12.953125 -7.671875 C 15.316406 -8.203125 17.738281 -9.140625 20.21875 -10.484375 C 22.707031 -11.828125 24.921875 -13.109375 26.859375 -14.328125 C 27.453125 -14.640625 27.984375 -14.96875 28.453125 -15.3125 Z M 12.921875 -21.484375 C 12.640625 -21.867188 12.175781 -22.023438 11.53125 -21.953125 C 10.894531 -21.878906 10.238281 -21.679688 9.5625 -21.359375 C 8.894531 -21.035156 8.3125 -20.695312 7.8125 -20.34375 C 7.3125 -20 7.09375 -19.75 7.15625 -19.59375 C 7.15625 -19.507812 7.210938 -19.359375 7.328125 -19.140625 C 7.453125 -18.929688 7.628906 -18.707031 7.859375 -18.46875 C 8.097656 -18.238281 8.414062 -18.078125 8.8125 -17.984375 C 9.207031 -17.890625 9.710938 -17.914062 10.328125 -18.0625 C 11.304688 -18.34375 11.992188 -18.707031 12.390625 -19.15625 C 12.785156 -19.601562 13.007812 -20.046875 13.0625 -20.484375 C 13.113281 -20.921875 13.066406 -21.253906 12.921875 -21.484375 Z M 12.921875 -21.484375 "/></g></g></g><g fill="#1c2120" fill-opacity="1"><g transform="translate(142.873188, 220.595671)"><g><path d="M 45.59375 -65.90625 C 46.425781 -59.1875 46.28125 -52.914062 45.15625 -47.09375 C 44.039062 -41.28125 42.039062 -35.78125 39.15625 -30.59375 C 36.269531 -25.414062 32.617188 -20.382812 28.203125 -15.5 C 27.796875 -15.101562 27.59375 -14.75 27.59375 -14.4375 C 27.59375 -14.125 27.796875 -13.734375 28.203125 -13.265625 C 29.097656 -12.054688 30.0625 -10.894531 31.09375 -9.78125 C 32.125 -8.675781 33.320312 -7.75 34.6875 -7 C 35.71875 -5.875 35.878906 -5.125 35.171875 -4.75 C 34.460938 -4.375 33.160156 -4.597656 31.265625 -5.421875 C 29.367188 -6.242188 27.175781 -7.960938 24.6875 -10.578125 C 24.21875 -11.160156 23.679688 -11.238281 23.078125 -10.8125 C 22.421875 -10.34375 21.765625 -9.894531 21.109375 -9.46875 C 20.503906 -9.039062 19.914062 -8.625 19.34375 -8.21875 C 17.382812 -6.851562 15.273438 -5.703125 13.015625 -4.765625 C 10.671875 -3.722656 8.207031 -3.316406 5.625 -3.546875 C 1.632812 -4.015625 -0.421875 -6.242188 -0.546875 -10.234375 C -0.648438 -13.046875 -0.0820312 -15.566406 1.15625 -17.796875 C 2.40625 -20.023438 4.144531 -21.664062 6.375 -22.71875 C 8.601562 -23.769531 11.164062 -23.976562 14.0625 -23.34375 C 14.445312 -23.28125 14.894531 -23.179688 15.40625 -23.046875 C 15.726562 -23.003906 16.125 -22.910156 16.59375 -22.765625 C 16.269531 -23.421875 15.992188 -24.007812 15.765625 -24.53125 C 15.378906 -25.425781 15.023438 -26.203125 14.703125 -26.859375 C 12.785156 -30.847656 11.210938 -35.421875 9.984375 -40.578125 C 8.765625 -45.734375 8.15625 -50.988281 8.15625 -56.34375 C 8.15625 -61.707031 9.0625 -66.710938 10.875 -71.359375 C 12.6875 -76.015625 15.648438 -79.84375 19.765625 -82.84375 C 22.335938 -84.613281 25.03125 -85.570312 27.84375 -85.71875 C 30.664062 -85.875 33.304688 -85.269531 35.765625 -83.90625 C 38.222656 -82.539062 40.253906 -80.492188 41.859375 -77.765625 C 43.878906 -74.078125 45.125 -70.125 45.59375 -65.90625 Z M 18.859375 -12.796875 C 19.460938 -13.265625 19.53125 -13.816406 19.0625 -14.453125 C 18.78125 -14.753906 18.476562 -15.082031 18.15625 -15.4375 C 17.414062 -16.375 16.5625 -17.335938 15.59375 -18.328125 C 14.625 -19.328125 13.597656 -20.09375 12.515625 -20.625 C 11.441406 -21.15625 10.367188 -21.1875 9.296875 -20.71875 C 7.828125 -20.019531 6.613281 -18.78125 5.65625 -17 C 4.695312 -15.21875 4.125 -13.390625 3.9375 -11.515625 C 3.757812 -9.640625 4.113281 -8.207031 5 -7.21875 C 5.882812 -6.238281 7.4375 -6.164062 9.65625 -7 C 12.976562 -8.445312 16.046875 -10.378906 18.859375 -12.796875 Z M 25.96875 -19.828125 C 30.507812 -25.066406 33.878906 -30.253906 36.078125 -35.390625 C 38.285156 -40.535156 39.816406 -46.550781 40.671875 -53.4375 C 40.859375 -55.113281 40.953125 -57.328125 40.953125 -60.078125 C 40.953125 -62.828125 40.703125 -65.675781 40.203125 -68.625 C 39.703125 -71.582031 38.84375 -74.28125 37.625 -76.71875 C 36.414062 -79.164062 34.71875 -80.925781 32.53125 -82 C 30.34375 -83.070312 27.566406 -83.066406 24.203125 -81.984375 C 20.410156 -79.828125 17.625 -76.921875 15.84375 -73.265625 C 14.0625 -69.609375 13.035156 -65.550781 12.765625 -61.09375 C 12.503906 -56.644531 12.800781 -52.097656 13.65625 -47.453125 C 14.507812 -42.804688 15.679688 -38.398438 17.171875 -34.234375 C 18.660156 -30.066406 20.257812 -26.4375 21.96875 -23.34375 C 22.195312 -22.957031 22.398438 -22.570312 22.578125 -22.1875 C 23.109375 -20.976562 23.863281 -19.859375 24.84375 -18.828125 C 24.96875 -18.921875 25.109375 -19.019531 25.265625 -19.125 C 25.535156 -19.289062 25.769531 -19.523438 25.96875 -19.828125 Z M 25.96875 -19.828125 "/></g></g></g><g fill="#f8f7f2" fill-opacity="1"><g transform="translate(182.046995, 220.595671)"><g><path d="M 8.21875 -23.40625 C 10.988281 -23.53125 12.894531 -22.238281 13.9375 -19.53125 C 14.6875 -17.550781 14.894531 -15.4375 14.5625 -13.1875 C 14.226562 -10.9375 13.476562 -9.066406 12.3125 -7.578125 C 11.175781 -6.210938 9.796875 -5.332031 8.171875 -4.9375 C 6.554688 -4.539062 4.976562 -4.664062 3.4375 -5.3125 C 1.894531 -5.96875 0.675781 -7.253906 -0.21875 -9.171875 C -0.925781 -10.878906 -1.160156 -12.597656 -0.921875 -14.328125 C -0.734375 -15.773438 -0.332031 -17.179688 0.28125 -18.546875 C 0.988281 -20.234375 2.035156 -21.453125 3.421875 -22.203125 C 4.804688 -22.960938 6.40625 -23.363281 8.21875 -23.40625 Z M 6.96875 -7.21875 C 8.144531 -7.925781 8.988281 -8.945312 9.5 -10.28125 C 10.007812 -11.613281 10.289062 -13.039062 10.34375 -14.5625 C 10.394531 -16.082031 10.269531 -17.503906 9.96875 -18.828125 C 9.570312 -20.660156 9.03125 -21.5625 8.34375 -21.53125 C 7.664062 -21.5 6.960938 -20.882812 6.234375 -19.6875 C 5.503906 -18.5 4.867188 -17.0625 4.328125 -15.375 C 3.785156 -13.695312 3.457031 -12.082031 3.34375 -10.53125 C 3.226562 -8.988281 3.441406 -7.863281 3.984375 -7.15625 C 4.523438 -6.457031 5.519531 -6.476562 6.96875 -7.21875 Z M 6.96875 -7.21875 "/></g></g></g><g fill="#f8f7f2" fill-opacity="1"><g transform="translate(199.215717, 220.595671)"><g><path d="M 47.125 -19.375 C 48.0625 -19.800781 48.609375 -19.875 48.765625 -19.59375 C 48.929688 -19.039062 48.425781 -18.046875 47.25 -16.609375 C 46.082031 -15.171875 44.5 -13.707031 42.5 -12.21875 C 37.65625 -8.84375 33.582031 -6.828125 30.28125 -6.171875 C 26.976562 -5.515625 24.28125 -5.722656 22.1875 -6.796875 C 20.101562 -7.867188 18.546875 -9.34375 17.515625 -11.21875 C 16.304688 -13.332031 15.550781 -15.421875 15.25 -17.484375 C 14.84375 -19.742188 14.285156 -21.023438 13.578125 -21.328125 C 12.878906 -21.628906 12.128906 -21.3125 11.328125 -20.375 C 10.535156 -19.4375 9.757812 -18.203125 9 -16.671875 C 8.238281 -15.148438 7.613281 -13.664062 7.125 -12.21875 C 6.632812 -10.769531 6.367188 -9.671875 6.328125 -8.921875 C 6.179688 -8.492188 6.046875 -8.085938 5.921875 -7.703125 C 5.722656 -7.109375 5.507812 -6.523438 5.28125 -5.953125 C 4.65625 -4.347656 3.578125 -3.757812 2.046875 -4.1875 C 1.191406 -4.332031 0.703125 -4.851562 0.578125 -5.75 C 0.515625 -6.351562 0.484375 -6.984375 0.484375 -7.640625 C 0.484375 -8.148438 0.460938 -8.691406 0.421875 -9.265625 C 0.328125 -13.109375 0.226562 -16.976562 0.125 -20.875 C 0.125 -21.34375 0.347656 -21.664062 0.796875 -21.84375 C 1.242188 -22.03125 1.757812 -22.113281 2.34375 -22.09375 C 2.9375 -22.070312 3.457031 -21.976562 3.90625 -21.8125 C 4.351562 -21.65625 4.597656 -21.429688 4.640625 -21.140625 C 4.742188 -20.492188 4.796875 -19.9375 4.796875 -19.46875 C 4.796875 -18.8125 4.835938 -18.335938 4.921875 -18.046875 C 5.003906 -17.765625 5.203125 -17.773438 5.515625 -18.078125 C 5.828125 -18.390625 6.351562 -19.035156 7.09375 -20.015625 C 8.269531 -21.890625 9.753906 -23.488281 11.546875 -24.8125 C 12.328125 -25.40625 13.253906 -25.832031 14.328125 -26.09375 C 15.410156 -26.363281 16.453125 -26.40625 17.453125 -26.21875 C 18.523438 -25.9375 19.363281 -25.328125 19.96875 -24.390625 C 20.570312 -23.453125 21.03125 -22.378906 21.34375 -21.171875 C 21.65625 -19.972656 21.882812 -18.863281 22.03125 -17.84375 C 22.070312 -17.5625 22.113281 -17.328125 22.15625 -17.140625 C 22.394531 -15.773438 22.707031 -14.53125 23.09375 -13.40625 C 23.488281 -12.289062 24.132812 -11.410156 25.03125 -10.765625 C 25.925781 -10.128906 27.238281 -9.890625 28.96875 -10.046875 C 32.71875 -10.316406 35.695312 -11.097656 37.90625 -12.390625 C 40.113281 -13.679688 41.972656 -15.050781 43.484375 -16.5 C 43.722656 -16.6875 43.925781 -16.878906 44.09375 -17.078125 C 44.4375 -17.304688 44.722656 -17.539062 44.953125 -17.78125 C 45.503906 -18.375 46.226562 -18.90625 47.125 -19.375 Z M 47.125 -19.375 "/></g></g></g><g fill="#f8f7f2" fill-opacity="1"><g transform="translate(243.720113, 220.595671)"><g><path d="M 47.265625 -18.484375 C 47.640625 -18.992188 48.039062 -19.363281 48.46875 -19.59375 C 48.894531 -19.832031 49.148438 -19.832031 49.234375 -19.59375 C 49.328125 -19.363281 49.09375 -18.800781 48.53125 -17.90625 C 47.28125 -16.03125 45.429688 -14.25 42.984375 -12.5625 C 40.546875 -10.882812 37.847656 -9.445312 34.890625 -8.25 C 31.941406 -7.050781 29.0625 -6.257812 26.25 -5.875 C 23.4375 -5.5 21.050781 -5.6875 19.09375 -6.4375 C 17.144531 -7.195312 15.9375 -8.675781 15.46875 -10.875 C 13.832031 -8.207031 11.890625 -6.117188 9.640625 -4.609375 C 7.390625 -3.109375 5.253906 -2.476562 3.234375 -2.71875 C 0.929688 -3.039062 -0.601562 -3.90625 -1.375 -5.3125 C -2.144531 -6.71875 -2.398438 -8.335938 -2.140625 -10.171875 C -1.890625 -12.003906 -1.335938 -13.738281 -0.484375 -15.375 C 0.160156 -16.632812 1.066406 -17.804688 2.234375 -18.890625 C 3.410156 -19.984375 4.640625 -20.828125 5.921875 -21.421875 C 7.515625 -22.234375 9.113281 -22.601562 10.71875 -22.53125 C 12.332031 -22.457031 14.054688 -21.925781 15.890625 -20.9375 C 15.890625 -20.9375 15.910156 -20.984375 15.953125 -21.078125 C 15.953125 -21.265625 15.988281 -21.484375 16.0625 -21.734375 C 16.132812 -21.992188 16.289062 -22.222656 16.53125 -22.421875 C 16.851562 -22.648438 17.265625 -22.832031 17.765625 -22.96875 C 18.265625 -23.113281 18.75 -23.140625 19.21875 -23.046875 C 19.96875 -22.898438 20.429688 -22.519531 20.609375 -21.90625 C 20.785156 -21.300781 20.816406 -20.632812 20.703125 -19.90625 C 20.585938 -19.1875 20.46875 -18.570312 20.34375 -18.0625 C 20.289062 -17.957031 20.265625 -17.863281 20.265625 -17.78125 C 19.503906 -14.6875 19.78125 -12.515625 21.09375 -11.265625 C 22.414062 -10.023438 24.328125 -9.453125 26.828125 -9.546875 C 29.335938 -9.640625 32 -10.164062 34.8125 -11.125 C 37.632812 -12.082031 40.195312 -13.226562 42.5 -14.5625 C 44.800781 -15.894531 46.390625 -17.203125 47.265625 -18.484375 Z M 4.15625 -6.875 C 5.132812 -6.21875 6.1875 -6.285156 7.3125 -7.078125 C 8.445312 -7.878906 9.550781 -9.03125 10.625 -10.53125 C 11.707031 -12.039062 12.597656 -13.539062 13.296875 -15.03125 C 14.003906 -16.519531 14.398438 -17.648438 14.484375 -18.421875 C 12.242188 -19.628906 10.320312 -19.84375 8.71875 -19.0625 C 7.125 -18.289062 5.878906 -17.050781 4.984375 -15.34375 C 4.085938 -13.644531 3.570312 -11.957031 3.4375 -10.28125 C 3.300781 -8.601562 3.539062 -7.46875 4.15625 -6.875 Z M 4.15625 -6.875 "/></g></g></g><g fill="#1c2120" fill-opacity="1"><g transform="translate(177.295174, 239.773898)"><g><path d="M 1.261719 0 L 6.417969 0 C 8.152344 0 9.378906 -0.824219 9.378906 -2.230469 C 9.378906 -3.5625 8.292969 -4.257812 6.878906 -4.257812 L 6.808594 -4.257812 L 6.808594 -4.328125 L 6.878906 -4.328125 C 8.058594 -4.328125 8.917969 -5.203125 8.917969 -6.207031 C 8.917969 -7.503906 7.773438 -8.257812 6.289062 -8.257812 L 1.261719 -8.257812 C 1.296875 -8.058594 1.320312 -7.832031 1.320312 -7.277344 L 1.320312 -0.980469 C 1.320312 -0.425781 1.296875 -0.199219 1.261719 0 Z M 1.910156 -4.484375 L 1.910156 -7.726562 L 6.21875 -7.726562 C 7.410156 -7.726562 8.328125 -7.195312 8.328125 -6.132812 C 8.328125 -5.074219 7.375 -4.484375 6.179688 -4.484375 Z M 1.910156 -0.542969 L 1.910156 -4.070312 L 6.300781 -4.070312 C 7.75 -4.070312 8.789062 -3.410156 8.789062 -2.277344 C 8.789062 -1.144531 7.785156 -0.542969 6.335938 -0.542969 Z M 1.910156 -0.542969 "/></g></g></g><g fill="#1c2120" fill-opacity="1"><g transform="translate(187.457687, 239.773898)"><g><path d="M 1.144531 0 L 1.816406 0 C 1.769531 -0.199219 1.746094 -0.414062 1.746094 -0.96875 L 1.746094 -3.113281 C 1.746094 -4.425781 3.054688 -5.566406 4.246094 -5.566406 C 4.566406 -5.566406 4.953125 -5.496094 5.121094 -5.402344 L 5.121094 -5.910156 C 4.941406 -5.992188 4.578125 -6.0625 4.257812 -6.0625 C 3.171875 -6.0625 2.207031 -5.378906 1.816406 -4.234375 L 1.746094 -4.234375 L 1.746094 -4.917969 C 1.746094 -5.320312 1.816406 -5.734375 1.839844 -5.898438 L 1.144531 -5.898438 C 1.179688 -5.6875 1.203125 -5.472656 1.203125 -4.917969 L 1.203125 -0.96875 C 1.203125 -0.414062 1.179688 -0.199219 1.144531 0 Z M 1.144531 0 "/></g></g></g><g fill="#1c2120" fill-opacity="1"><g transform="translate(192.892624, 239.773898)"><g><path d="M 3.679688 0.164062 C 5.027344 0.164062 6.085938 -0.4375 6.441406 -1.132812 L 6.523438 -1.132812 L 6.523438 -0.957031 C 6.523438 -0.554688 6.476562 -0.199219 6.417969 0 L 7.125 0 C 7.078125 -0.199219 7.054688 -0.425781 7.054688 -0.980469 L 7.054688 -3.667969 C 7.054688 -5.472656 5.757812 -6.0625 3.964844 -6.0625 C 2.925781 -6.0625 2.089844 -5.851562 1.390625 -5.554688 L 1.390625 -5.039062 C 1.910156 -5.308594 2.949219 -5.578125 3.976562 -5.578125 C 5.578125 -5.578125 6.523438 -5.097656 6.523438 -3.679688 L 6.523438 -2.738281 L 6.429688 -2.738281 C 6.0625 -3.363281 5.027344 -3.976562 3.679688 -3.976562 C 1.722656 -3.976562 0.671875 -3.160156 0.671875 -1.921875 C 0.671875 -0.683594 1.734375 0.164062 3.679688 0.164062 Z M 3.796875 -0.308594 C 2.160156 -0.308594 1.214844 -0.945312 1.214844 -1.945312 C 1.214844 -2.949219 2.148438 -3.550781 3.796875 -3.550781 C 5.097656 -3.550781 6.523438 -2.914062 6.523438 -1.945312 C 6.523438 -0.824219 5.097656 -0.308594 3.796875 -0.308594 Z M 3.796875 -0.308594 "/></g></g></g><g fill="#1c2120" fill-opacity="1"><g transform="translate(201.121669, 239.773898)"><g><path d="M 1.144531 0 L 1.816406 0 C 1.769531 -0.199219 1.746094 -0.425781 1.746094 -0.980469 L 1.746094 -2.972656 C 1.746094 -4.386719 3.03125 -5.566406 4.519531 -5.566406 C 5.945312 -5.566406 6.890625 -4.824219 6.890625 -3.363281 L 6.890625 -0.980469 C 6.890625 -0.425781 6.867188 -0.199219 6.820312 0 L 7.492188 0 C 7.445312 -0.199219 7.421875 -0.425781 7.421875 -0.980469 L 7.421875 -3.375 C 7.421875 -5.109375 6.324219 -6.0625 4.566406 -6.0625 C 3.433594 -6.0625 2.21875 -5.507812 1.828125 -4.234375 L 1.746094 -4.234375 L 1.746094 -4.917969 C 1.746094 -5.472656 1.769531 -5.699219 1.816406 -5.898438 L 1.144531 -5.898438 C 1.191406 -5.699219 1.214844 -5.472656 1.214844 -4.917969 L 1.214844 -0.980469 C 1.214844 -0.425781 1.191406 -0.199219 1.144531 0 Z M 1.144531 0 "/></g></g></g><g fill="#1c2120" fill-opacity="1"><g transform="translate(209.716182, 239.773898)"><g><path d="M 4.070312 0.164062 C 5.402344 0.164062 6.488281 -0.554688 6.9375 -1.582031 L 7.03125 -1.582031 L 7.03125 -1.261719 C 7.03125 -0.777344 6.984375 -0.257812 6.925781 0 L 7.632812 0 C 7.585938 -0.367188 7.574219 -0.742188 7.5625 -1.285156 L 7.5625 -7.277344 C 7.5625 -7.832031 7.585938 -8.058594 7.632812 -8.257812 L 6.960938 -8.257812 C 6.996094 -8.058594 7.03125 -7.832031 7.03125 -7.277344 L 7.03125 -4.351562 L 6.9375 -4.351562 C 6.464844 -5.378906 5.378906 -6.0625 4.058594 -6.0625 C 2.136719 -6.0625 0.742188 -4.8125 0.742188 -2.949219 C 0.742188 -1.085938 2.148438 0.164062 4.070312 0.164062 Z M 4.175781 -0.332031 C 2.511719 -0.332031 1.285156 -1.390625 1.285156 -2.949219 C 1.285156 -4.507812 2.511719 -5.566406 4.175781 -5.566406 C 5.792969 -5.566406 7.03125 -4.472656 7.03125 -2.949219 C 7.03125 -1.582031 5.792969 -0.332031 4.175781 -0.332031 Z M 4.175781 -0.332031 "/></g></g></g><g fill="#1c2120" fill-opacity="1"><g transform="translate(218.487543, 239.773898)"><g/></g></g><g fill="#1c2120" fill-opacity="1"><g transform="translate(222.083331, 239.773898)"><g><path d="M 1.261719 0 L 1.980469 0 C 1.933594 -0.199219 1.910156 -0.425781 1.910156 -0.980469 L 1.910156 -3.714844 L 6.699219 -3.714844 C 7.253906 -3.714844 7.480469 -3.691406 7.679688 -3.644531 L 7.679688 -4.292969 C 7.480469 -4.257812 7.253906 -4.234375 6.699219 -4.234375 L 1.910156 -4.234375 L 1.910156 -7.714844 L 7.609375 -7.714844 C 8.164062 -7.714844 8.375 -7.691406 8.578125 -7.644531 L 8.398438 -8.257812 L 1.261719 -8.257812 C 1.296875 -8.058594 1.320312 -7.832031 1.320312 -7.277344 L 1.320312 -0.980469 C 1.320312 -0.425781 1.296875 -0.199219 1.261719 0 Z M 1.261719 0 "/></g></g></g><g fill="#1c2120" fill-opacity="1"><g transform="translate(231.114057, 239.773898)"><g><path d="M 3.679688 0.164062 C 5.027344 0.164062 6.085938 -0.4375 6.441406 -1.132812 L 6.523438 -1.132812 L 6.523438 -0.957031 C 6.523438 -0.554688 6.476562 -0.199219 6.417969 0 L 7.125 0 C 7.078125 -0.199219 7.054688 -0.425781 7.054688 -0.980469 L 7.054688 -3.667969 C 7.054688 -5.472656 5.757812 -6.0625 3.964844 -6.0625 C 2.925781 -6.0625 2.089844 -5.851562 1.390625 -5.554688 L 1.390625 -5.039062 C 1.910156 -5.308594 2.949219 -5.578125 3.976562 -5.578125 C 5.578125 -5.578125 6.523438 -5.097656 6.523438 -3.679688 L 6.523438 -2.738281 L 6.429688 -2.738281 C 6.0625 -3.363281 5.027344 -3.976562 3.679688 -3.976562 C 1.722656 -3.976562 0.671875 -3.160156 0.671875 -1.921875 C 0.671875 -0.683594 1.734375 0.164062 3.679688 0.164062 Z M 3.796875 -0.308594 C 2.160156 -0.308594 1.214844 -0.945312 1.214844 -1.945312 C 1.214844 -2.949219 2.148438 -3.550781 3.796875 -3.550781 C 5.097656 -3.550781 6.523438 -2.914062 6.523438 -1.945312 C 6.523438 -0.824219 5.097656 -0.308594 3.796875 -0.308594 Z M 3.796875 -0.308594 "/></g></g></g><g fill="#1c2120" fill-opacity="1"><g transform="translate(239.343101, 239.773898)"><g><path d="M 3.65625 0.164062 C 5.402344 0.164062 6.40625 -0.566406 6.40625 -1.546875 C 6.40625 -3.964844 1.367188 -2.640625 1.367188 -4.472656 C 1.367188 -5.214844 2.371094 -5.617188 3.515625 -5.617188 C 4.339844 -5.617188 5.414062 -5.367188 5.96875 -5.132812 L 5.96875 -5.617188 C 5.367188 -5.839844 4.351562 -6.0625 3.527344 -6.0625 C 1.957031 -6.0625 0.824219 -5.4375 0.824219 -4.460938 C 0.824219 -2.160156 5.875 -3.46875 5.875 -1.523438 C 5.875 -0.765625 5.027344 -0.296875 3.65625 -0.296875 C 2.628906 -0.296875 1.308594 -0.613281 0.589844 -1.027344 L 0.554688 -0.496094 C 1.25 -0.128906 2.667969 0.164062 3.65625 0.164062 Z M 3.65625 0.164062 "/></g></g></g><g fill="#1c2120" fill-opacity="1"><g transform="translate(246.393194, 239.773898)"><g><path d="M 1.144531 0 L 1.816406 0 C 1.769531 -0.199219 1.746094 -0.425781 1.746094 -0.980469 L 1.746094 -2.972656 C 1.746094 -4.386719 3.03125 -5.566406 4.519531 -5.566406 C 5.945312 -5.566406 6.890625 -4.824219 6.890625 -3.363281 L 6.890625 -0.980469 C 6.890625 -0.425781 6.867188 -0.199219 6.820312 0 L 7.492188 0 C 7.445312 -0.199219 7.421875 -0.425781 7.421875 -0.980469 L 7.421875 -3.375 C 7.421875 -5.109375 6.324219 -6.0625 4.566406 -6.0625 C 3.433594 -6.0625 2.21875 -5.507812 1.828125 -4.234375 L 1.746094 -4.234375 L 1.746094 -7.277344 C 1.746094 -7.832031 1.769531 -8.058594 1.816406 -8.257812 L 1.144531 -8.257812 C 1.191406 -8.058594 1.214844 -7.832031 1.214844 -7.277344 L 1.214844 -0.980469 C 1.214844 -0.425781 1.191406 -0.199219 1.144531 0 Z M 1.144531 0 "/></g></g></g><g fill="#1c2120" fill-opacity="1"><g transform="translate(254.987707, 239.773898)"><g><path d="M 1.449219 -7.324219 C 1.710938 -7.324219 1.910156 -7.527344 1.910156 -7.761719 C 1.910156 -8.011719 1.710938 -8.210938 1.449219 -8.210938 C 1.191406 -8.210938 0.980469 -8.011719 0.980469 -7.761719 C 0.980469 -7.527344 1.191406 -7.324219 1.449219 -7.324219 Z M 1.109375 0 L 1.78125 0 C 1.734375 -0.210938 1.710938 -0.425781 1.710938 -0.980469 L 1.710938 -4.917969 C 1.710938 -5.472656 1.734375 -5.699219 1.78125 -5.898438 C 1.617188 -5.863281 1.273438 -5.863281 1.109375 -5.898438 C 1.15625 -5.699219 1.179688 -5.472656 1.179688 -4.917969 L 1.179688 -0.980469 C 1.179688 -0.425781 1.15625 -0.210938 1.109375 0 Z M 1.109375 0 "/></g></g></g><g fill="#1c2120" fill-opacity="1"><g transform="translate(257.876126, 239.773898)"><g><path d="M 4.234375 0.164062 C 6.253906 0.164062 7.726562 -1.085938 7.726562 -2.949219 C 7.726562 -4.8125 6.253906 -6.0625 4.234375 -6.0625 C 2.207031 -6.0625 0.742188 -4.8125 0.742188 -2.949219 C 0.742188 -1.085938 2.207031 0.164062 4.234375 0.164062 Z M 4.234375 -0.332031 C 2.582031 -0.332031 1.273438 -1.320312 1.273438 -2.949219 C 1.273438 -4.589844 2.582031 -5.566406 4.234375 -5.566406 C 5.886719 -5.566406 7.183594 -4.589844 7.183594 -2.949219 C 7.183594 -1.320312 5.886719 -0.332031 4.234375 -0.332031 Z M 4.234375 -0.332031 "/></g></g></g><g fill="#1c2120" fill-opacity="1"><g transform="translate(266.329164, 239.773898)"><g><path d="M 1.144531 0 L 1.816406 0 C 1.769531 -0.199219 1.746094 -0.425781 1.746094 -0.980469 L 1.746094 -2.972656 C 1.746094 -4.386719 3.03125 -5.566406 4.519531 -5.566406 C 5.945312 -5.566406 6.890625 -4.824219 6.890625 -3.363281 L 6.890625 -0.980469 C 6.890625 -0.425781 6.867188 -0.199219 6.820312 0 L 7.492188 0 C 7.445312 -0.199219 7.421875 -0.425781 7.421875 -0.980469 L 7.421875 -3.375 C 7.421875 -5.109375 6.324219 -6.0625 4.566406 -6.0625 C 3.433594 -6.0625 2.21875 -5.507812 1.828125 -4.234375 L 1.746094 -4.234375 L 1.746094 -4.917969 C 1.746094 -5.472656 1.769531 -5.699219 1.816406 -5.898438 L 1.144531 -5.898438 C 1.191406 -5.699219 1.214844 -5.472656 1.214844 -4.917969 L 1.214844 -0.980469 C 1.214844 -0.425781 1.191406 -0.199219 1.144531 0 Z M 1.144531 0 "/></g></g></g><g fill="#1c2120" fill-opacity="1"><g transform="translate(124.731338, 182.046067)"><g><path d="M 6.78125 0 L 6.03125 -2.15625 L 2.828125 -2.15625 L 2.078125 0 L 0.3125 0 L 3.390625 -8.4375 L 5.46875 -8.4375 L 8.53125 0 Z M 4.421875 -7.140625 L 4.390625 -7 C 4.347656 -6.863281 4.296875 -6.703125 4.234375 -6.515625 C 4.179688 -6.328125 3.84375 -5.316406 3.21875 -3.484375 L 5.640625 -3.484375 L 4.8125 -5.90625 L 4.546875 -6.71875 Z M 4.421875 -7.140625 "/></g></g></g><g fill="#1c2120" fill-opacity="1"><g transform="translate(133.592006, 182.046067)"><g><path d="M 5.953125 0 L 2.28125 -6.5 C 2.351562 -5.863281 2.390625 -5.359375 2.390625 -4.984375 L 2.390625 0 L 0.828125 0 L 0.828125 -8.4375 L 2.84375 -8.4375 L 6.5625 -1.890625 C 6.5 -2.492188 6.46875 -3.039062 6.46875 -3.53125 L 6.46875 -8.4375 L 8.03125 -8.4375 L 8.03125 0 Z M 5.953125 0 "/></g></g></g><g fill="#1c2120" fill-opacity="1"><g transform="translate(142.452673, 182.046067)"><g><path d="M 8.34375 -4.28125 C 8.34375 -3.414062 8.171875 -2.65625 7.828125 -2 C 7.484375 -1.351562 7 -0.859375 6.375 -0.515625 C 5.75 -0.171875 5.035156 0 4.234375 0 L 0.828125 0 L 0.828125 -8.4375 L 3.875 -8.4375 C 5.289062 -8.4375 6.390625 -8.078125 7.171875 -7.359375 C 7.953125 -6.640625 8.34375 -5.613281 8.34375 -4.28125 Z M 6.5625 -4.28125 C 6.5625 -5.1875 6.328125 -5.878906 5.859375 -6.359375 C 5.390625 -6.835938 4.71875 -7.078125 3.84375 -7.078125 L 2.59375 -7.078125 L 2.59375 -1.359375 L 4.078125 -1.359375 C 4.835938 -1.359375 5.441406 -1.617188 5.890625 -2.140625 C 6.335938 -2.671875 6.5625 -3.382812 6.5625 -4.28125 Z M 6.5625 -4.28125 "/></g></g></g><g fill="#1c2120" fill-opacity="1"><g transform="translate(151.313341, 182.046067)"><g/></g></g><g fill="#1c2120" fill-opacity="1"><g transform="translate(154.722215, 182.046067)"><g><path d="M 4.765625 -1.265625 C 5.828125 -1.265625 6.566406 -1.800781 6.984375 -2.875 L 8.515625 -2.296875 C 8.191406 -1.484375 7.707031 -0.875 7.0625 -0.46875 C 6.425781 -0.0703125 5.660156 0.125 4.765625 0.125 C 3.398438 0.125 2.347656 -0.257812 1.609375 -1.03125 C 0.867188 -1.800781 0.5 -2.878906 0.5 -4.265625 C 0.5 -5.648438 0.851562 -6.710938 1.5625 -7.453125 C 2.28125 -8.191406 3.320312 -8.5625 4.6875 -8.5625 C 5.675781 -8.5625 6.476562 -8.363281 7.09375 -7.96875 C 7.71875 -7.570312 8.160156 -6.988281 8.421875 -6.21875 L 6.859375 -5.796875 C 6.722656 -6.210938 6.460938 -6.546875 6.078125 -6.796875 C 5.691406 -7.046875 5.238281 -7.171875 4.71875 -7.171875 C 3.914062 -7.171875 3.304688 -6.921875 2.890625 -6.421875 C 2.484375 -5.929688 2.28125 -5.210938 2.28125 -4.265625 C 2.28125 -3.285156 2.492188 -2.539062 2.921875 -2.03125 C 3.347656 -1.519531 3.960938 -1.265625 4.765625 -1.265625 Z M 4.765625 -1.265625 "/></g></g></g><g fill="#1c2120" fill-opacity="1"><g transform="translate(163.582883, 182.046067)"><g><path d="M 9.03125 -4.265625 C 9.03125 -3.378906 8.851562 -2.601562 8.5 -1.9375 C 8.15625 -1.269531 7.660156 -0.757812 7.015625 -0.40625 C 6.367188 -0.0507812 5.613281 0.125 4.75 0.125 C 3.425781 0.125 2.382812 -0.265625 1.625 -1.046875 C 0.875 -1.828125 0.5 -2.898438 0.5 -4.265625 C 0.5 -5.609375 0.875 -6.660156 1.625 -7.421875 C 2.375 -8.179688 3.421875 -8.5625 4.765625 -8.5625 C 6.097656 -8.5625 7.140625 -8.175781 7.890625 -7.40625 C 8.648438 -6.644531 9.03125 -5.597656 9.03125 -4.265625 Z M 7.21875 -4.265625 C 7.21875 -5.171875 7 -5.878906 6.5625 -6.390625 C 6.132812 -6.910156 5.535156 -7.171875 4.765625 -7.171875 C 3.972656 -7.171875 3.359375 -6.914062 2.921875 -6.40625 C 2.492188 -5.894531 2.28125 -5.179688 2.28125 -4.265625 C 2.28125 -3.335938 2.5 -2.601562 2.9375 -2.0625 C 3.382812 -1.53125 3.988281 -1.265625 4.75 -1.265625 C 5.539062 -1.265625 6.148438 -1.523438 6.578125 -2.046875 C 7.003906 -2.566406 7.21875 -3.304688 7.21875 -4.265625 Z M 7.21875 -4.265625 "/></g></g></g><g fill="#1c2120" fill-opacity="1"><g transform="translate(173.126522, 182.046067)"><g><path d="M 0.828125 0 L 0.828125 -1.828125 L 2.5625 -1.828125 L 2.5625 0 Z M 0.828125 0 "/></g></g></g></svg>